# xmcd
#
# Track frame offsets:
# 150
# 16956
# 36750
# 52065
# 65003
# 76134
# 92594
# 106755
# 123448
# 141090
# 153040
#
# Disc length: 2238 seconds
#
#
# Revision: 0
# Processed by: cddbd v1.4PL0 Copyright (c) Steve Scherf et al.
# Submitted via: FreeRIP 2.11 
#
DISCID=8308bc0b
DTITLE=Mo Leverett - Poetic Justice
DYEAR=2003
DGENRE=Contemporary Christian
TTITLE0=Waiting
TTITLE1=Louisiana
TTITLE2=If You Know What I Mean
TTITLE3=For The Love Of New Orleans
TTITLE4=Three Reasons
TTITLE5=Ain't No Place Like New Orleans
TTITLE6=Mischievous Smile
TTITLE7=Autumn Rain
TTITLE8=On Christian
TTITLE9=Advent Of Spring
TTITLE10=Dandelion
EXTD=The Later Years
EXTT0=
EXTT1=
EXTT2=
EXTT3=
EXTT4=
EXTT5=
EXTT6=
EXTT7=
EXTT8=
EXTT9=
EXTT10=
PLAYORDER=
